<svg width="25" height="25" viewBox="0 0 25 25" fill="none" xmlns="http://www.w3.org/2000/svg">
<path d="M20.15 0.0687561H4.85C2.19373 0.0687561 0.0687408 2.19375 0.0687408 4.85002V20.15C0.0687408 22.8063 2.19373 24.9312 4.85 24.9312H20.15C22.8062 24.9312 24.9313 22.8063 24.9313 20.15V4.85C24.9313 2.19375 22.8062 0.0687561 20.15 0.0687561ZM21.5312 2.9375H22.0625V7.18749H17.8125V2.9375H21.5312ZM8.99376 9.95002C9.7375 8.8875 11.1188 8.14375 12.5 8.14375C13.8813 8.14375 15.2625 8.8875 16.0063 9.95002C16.5375 10.6938 16.8562 11.5438 16.8562 12.5C16.8562 14.9437 14.8375 16.8563 12.5 16.8563C10.1625 16.8563 8.14376 14.9438 8.14376 12.5C8.14375 11.5438 8.4625 10.6938 8.99376 9.95002ZM22.4875 20.15C22.4875 21.425 21.425 22.4875 20.15 22.4875H4.85C3.57501 22.4875 2.51249 21.425 2.51249 20.15V9.95002H6.23124C5.91248 10.6938 5.7 11.65 5.7 12.5C5.7 16.2188 8.78124 19.3 12.5 19.3C16.2187 19.3 19.3 16.2188 19.3 12.5C19.3 11.65 19.0875 10.6937 18.7687 9.95002H22.4875L22.4875 20.15Z" fill="white"/>
</svg>
