<svg width="34" height="21" viewBox="0 0 34 21" fill="none" xmlns="http://www.w3.org/2000/svg">
<path fill-rule="evenodd" clip-rule="evenodd" d="M32.7545 2.30295C32.9861 1.53068 32.7545 0.990082 31.6733 0.990082H28.0693C27.1426 0.990082 26.7307 1.47919 26.499 2.01979C26.499 2.01979 24.6713 6.499 22.0713 9.38217C21.2218 10.2317 20.8614 10.4891 20.398 10.4891C20.1663 10.4891 19.8317 10.2317 19.8317 9.45939V2.30295C19.8317 1.37622 19.5743 0.990082 18.802 0.990082H13.1386C12.5723 0.990082 12.2119 1.42771 12.2119 1.81384C12.2119 2.68909 13.499 2.89503 13.6535 5.31484V10.6178C13.6535 11.7762 13.4475 11.9822 12.9842 11.9822C11.7743 11.9822 8.78812 7.50296 7.03762 2.35444C6.67722 1.40196 6.34257 0.990082 5.41584 0.990082H1.81188C0.782173 0.990082 0.576233 1.47919 0.576233 2.01979C0.576233 2.97226 1.78613 7.7089 6.26534 13.9643C9.25148 18.2376 13.4475 20.5545 17.2574 20.5545C19.5485 20.5545 19.8317 20.0396 19.8317 19.1644V15.9208C19.8317 14.8911 20.0376 14.6851 20.7842 14.6851C21.3248 14.6851 22.2257 14.9426 24.3624 17.002C26.8079 19.4475 27.2198 20.5545 28.5842 20.5545H32.1881C33.2178 20.5545 33.7327 20.0396 33.4238 19.0356C33.0891 18.0317 31.9307 16.5643 30.3861 14.8139C29.5366 13.8099 28.2752 12.7544 27.9149 12.2139C27.3743 11.5188 27.5287 11.2099 27.9149 10.6178C27.9149 10.5921 32.3168 4.41385 32.7545 2.30295Z" fill="white"/>
</svg>
